Coordinates
version=1
nRows=10
nColumns=22
inDegrees=yes

Units are S.I. units (second, meters, Newtons, ...)
If the header above contains a line with 'inDegrees', this indicates whether rotational values are in degrees (yes) or radians (no).

endheader
time	pelvis_tilt	pelvis_list	pelvis_rotation	pelvis_tx	pelvis_ty	pelvis_tz	hip_flexion_r	hip_adduction_r	hip_rotation_r	knee_angle_r	ankle_angle_r	subtalar_angle_r	hip_flexion_l	hip_adduction_l	hip_rotation_l	knee_angle_l	ankle_angle_l	subtalar_angle_l	lumbar_extension	lumbar_bending	lumbar_rotation
      3.40000000	      5.17357911	      2.16584527	     92.80853183	      0.54001385	      0.93723108	     -0.52548292	      0.95462118	      9.42662591	     -6.91135040	     -9.38579027	      6.25768152	     -0.40462032	     17.34160377	     -9.21697298	     -4.42586811	    -39.15179790	     10.82324727	     -0.05615322	     -9.48096385	      3.40467243	      2.72452565
      3.41000000	      5.20828815	      2.09111054	     92.75500448	      0.54054936	      0.93696761	     -0.52747274	      0.83039799	      9.50430732	     -6.80676261	     -9.26454437	      6.34604164	     -0.40274660	     16.79482905	     -9.19424907	     -4.36204664	    -38.18087336	     11.10662549	     -0.27518671	     -9.33822587	      3.48957616	      2.50698552
      3.42000000	      5.25270744	      1.99616711	     92.70797207	      0.54107890	      0.93666790	     -0.52941269	      0.72487768	      9.59167277	     -6.69026922	     -9.12869443	      6.41270970	     -0.40342047	     16.29868356	     -9.17964672	     -4.26086993	    -37.34795899	     11.41537659	     -0.57665058	     -9.17129910	      3.57914277	      2.28251011
      3.43000000	      5.30533543	      1.93425394	     92.66129511	      0.54160292	      0.93643636	     -0.53127356	      0.59668638	      9.68809312	     -6.54872349	     -9.01015380	      6.45821985	     -0.40256865	     15.79207441	     -9.16653553	     -4.11044571	    -36.62441833	     11.73085616	     -1.04728555	     -9.05243214	      3.67269098	      2.05332652
      3.44000000	      5.35737006	      1.84613046	     92.63119247	      0.54210050	      0.93618101	     -0.53310225	      0.48000811	      9.78232706	     -6.42554609	     -8.85419876	      6.49367335	     -0.39535873	     15.34601116	     -9.14902723	     -3.94270478	    -35.99385069	     12.07528488	     -1.52566239	     -8.89994759	      3.75814492	      1.82399443
      3.45000000	      5.41597556	      1.74765762	     92.62046144	      0.54256266	      0.93593009	     -0.53488772	      0.35938264	      9.88168982	     -6.33382370	     -8.66093107	      6.51419283	     -0.38651482	     14.94643332	     -9.13891576	     -3.76695285	    -35.43068025	     12.44381744	     -1.91258830	     -8.73704488	      3.84467384	      1.57418765
      3.46000000	      5.47042155	      1.65126752	     92.63172462	      0.54299021	      0.93572569	     -0.53659031	      0.22424154	      9.97766611	     -6.22952568	     -8.43448611	      6.49762615	     -0.37298805	     14.57193024	     -9.12179515	     -3.58044447	    -34.88908420	     12.78582992	     -2.29204669	     -8.58723597	      3.91638273	      1.31679270
      3.47000000	      5.50626673	      1.53941536	     92.65269377	      0.54339144	      0.93554664	     -0.53821219	      0.08881402	     10.05217685	     -6.12186033	     -8.16678163	      6.46705275	     -0.34596459	     14.23442891	     -9.09311062	     -3.43412797	    -34.34938031	     13.09487865	     -2.63652520	     -8.43153389	      3.95704831	      1.05393497
      3.48000000	      5.55905411	      1.39123704	     92.71128036	      0.54372939	      0.93532456	     -0.53972334	     -0.00699481	     10.14195576	     -6.05194900	     -7.88038934	      6.41630204	     -0.33425147	     13.98127978	     -9.08163745	     -3.26908981	    -33.83188548	     13.40763438	     -2.73298168	     -8.24171227	      4.01092837	      0.77007915
      3.49000000	      5.59150551	      1.26576266	     92.79483350	      0.54400326	      0.93518834	     -0.54121292	     -0.17370296	     10.21176018	     -6.03431154	     -7.50073985	      6.32226633	     -0.30249664	     13.71817163	     -9.06902925	     -3.18658465	    -33.30411349	     13.68663755	     -2.86040666	     -8.08097060	      4.03498241	      0.46731644
